<svg xmlns="http://www.w3.org/2000/svg" version="1.1" xmlns:xlink="http://www.w3.org/1999/xlink" xmlns:svgjs="http://svgjs.dev/svgjs" viewBox="0 0 800 800"><defs><filter id="uuunion-blur" x="-100%" y="-100%" width="400%" height="400%" color-interpolation-filters="sRGB">
        <feGaussianBlur in="SourceGraphic" stdDeviation="7.5 0" result="blur"></feGaussianBlur>
        <feDropShadow stdDeviation="12.307692307692308" in="blur" dx="10" dy="10" flood-color="#fe6161" flood-opacity="0.25" x="0%" y="0%" width="100%" height="100%"></feDropShadow>
      </filter><filter id="uuunion-blur2" x="-100%" y="-100%" width="400%" height="400%" color-interpolation-filters="sRGB">
        <feGaussianBlur in="SourceGraphic" stdDeviation="7.5 0" result="blur"></feGaussianBlur>
        <feDropShadow stdDeviation="12.307692307692308" in="blur" dx="-10" dy="-10" flood-color="#fe6161" flood-opacity="0.25" x="0%" y="0%" width="100%" height="100%"></feDropShadow>
      </filter><linearGradient gradientTransform="rotate(0, 0.5, 0.5)" x1="50%" y1="0%" x2="50%" y2="100%" id="uuunion-grad"><stop stop-color="#ebdbb2" offset="10%"></stop><stop stop-color="#fe6161" offset="90%"></stop></linearGradient><linearGradient gradientTransform="rotate(135, 0.5, 0.5)" x1="50%" y1="0%" x2="50%" y2="100%" id="uuunion-grad2"><stop stop-color="#ebdbb2" offset="25%"></stop><stop stop-color="#fe6161" offset="100%"></stop></linearGradient><linearGradient gradientTransform="rotate(333, 0.5, 0.5)" x1="50%" y1="0%" x2="50%" y2="100%" id="uuunion-grad3"><stop stop-color="#ebdbb2" offset="0%"></stop><stop stop-color="#fe6161" offset="75%"></stop></linearGradient></defs><path d="M-78.91 -77.92Q-64.3 -75.87 -49.69 -74.08 -35.08 -72.65 -20.47 -71.68 -5.85 -71.23 8.75 -71.32 23.36 -71.95 37.97 -73.08 52.58 -74.64 67.19 -76.53 81.8 -78.64 96.41 -80.84 111.02 -82.98 125.63 -84.93 140.24 -86.58 154.85 -87.82 169.46 -88.57 184.07 -88.79 198.68 -88.46 213.29 -87.61 227.9 -86.28 242.51 -84.56 257.12 -82.56 271.73 -80.4 286.34 -78.21 300.95 -76.13 315.56 -74.3 330.17 -72.82 344.78 -71.78 359.39 -71.25 374 -71.27 388.61 -71.83 403.22 -72.9 417.83 -74.41 432.44 -76.27 447.05 -78.36 461.66 -80.55 476.27 -82.7 490.88 -84.69 505.49 -86.38 520.1 -87.68 534.71 -88.5 549.32 -88.79 563.93 -88.54 578.54 -87.75 593.15 -86.48 607.76 -84.81 622.37 -82.84 636.98 -80.69 651.6 -78.5 666.21 -76.4 680.82 -74.52 695.43 -72.99 710.04 -71.89 724.65 -71.29 739.26 -71.24 753.87 -71.73 768.48 -72.73 783.09 -74.19 797.7 -76.01 812.31 -78.07 826.92 -80.25 841.53 -82.42 856.14 -84.44 857.89 -69.55 861.22 -54.67 865.89 -39.78 871.57 -24.89 877.85 -10.01 884.28 4.87 890.4 19.75 895.78 34.64 900.04 49.53 902.87 64.41 904.06 79.3 903.54 94.19 901.34 109.07 897.62 123.96 892.64 138.85 886.76 153.73 880.39 168.62 874 183.5 868.04 198.39 862.93 213.28 859.03 228.16 856.63 243.05 855.9 257.94 856.88 272.82 859.52 287.71 863.61 302.6 868.87 317.48 874.93 332.37 881.35 347.25 887.67 362.14 893.44 377.03 898.25 391.91 901.77 406.8 903.73 421.69 903.99 436.57 902.55 451.46 899.49 466.35 895.05 481.23 889.53 496.12 883.34 511 876.9 525.89 870.68 540.78 865.13 555.66 860.64 570.55 857.53 585.44 856.02 600.32 856.22 615.21 858.12 630.1 861.58 644.98 866.35 659.87 872.09 674.75 878.4 689.64 884.82 704.53 890.9 719.41 896.2 734.3 900.34 749.19 903.03 764.07 904.08 778.96 903.42 793.84 901.08 808.73 897.24 823.62 892.17 838.5 886.23 853.39 879.84 868.28 864.85 873.59 849.85 879.31 834.85 885.07 819.85 890.51 804.86 895.3 789.86 899.14 774.86 901.79 759.86 903.08 744.87 902.94 729.87 901.37 714.87 898.47 699.87 894.42 684.87 889.48 669.88 883.95 654.88 878.17 639.88 872.5 624.88 867.3 609.89 862.89 594.89 859.55 579.89 857.47 564.89 856.8 549.9 857.56 534.9 859.73 519.9 863.15 504.9 867.62 489.91 872.86 474.91 878.54 459.91 884.32 444.91 889.82 429.92 894.71 414.92 898.69 399.92 901.51 384.92 902.99 369.93 903.04 354.93 901.65 339.93 898.92 324.93 895.02 309.94 890.18 294.94 884.7 279.94 878.93 264.94 873.23 249.95 867.95 234.95 863.42 219.95 859.92 204.95 857.67 189.96 856.8 174.96 857.38 159.96 859.36 144.96 862.63 129.97 866.97 114.97 872.13 99.97 877.77 84.97 883.56 69.98 889.12 54.98 894.11 39.98 898.23 24.98 901.21 9.99 902.87 -5 903.11 -20 901.92 -35 899.36 -49.99 895.59 -64.99 890.86 -79.99 885.45 -80.28 870.4 -80.55 855.35 -80.78 840.29 -80.96 825.24 -81.06 810.19 -81.09 795.13 -81.05 780.08 -80.92 765.03 -80.73 749.98 -80.49 734.92 -80.22 719.87 -79.92 704.82 -79.63 689.76 -79.37 674.71 -79.15 659.66 -79 644.61 -78.91 629.55 -78.9 614.5 -78.97 599.45 -79.11 584.39 -79.32 569.34 -79.57 554.29 -79.85 539.24 -80.15 524.18 -80.43 509.13 -80.68 494.08 -80.89 479.02 -81.02 463.97 -81.09 448.92 -81.08 433.86 -80.99 418.81 -80.83 403.76 -80.61 388.71 -80.35 373.65 -80.06 358.6 -79.76 343.55 -79.49 328.49 -79.25 313.44 -79.06 298.39 -78.94 283.34 -78.9 268.28 -78.93 253.23 -79.04 238.18 -79.22 223.12 -79.45 208.07 -79.72 193.02 -80.01 177.96 -80.3 162.91 -80.57 147.86 -80.8 132.81 -80.97 117.75 -81.07 102.7 -81.09 87.65 -81.04 72.59 -80.91 57.54 -80.72 42.49 -80.47 27.44 -80.19 12.38 -79.9 -2.66 -79.61 -17.71 -79.35 -32.77 -79.14 -47.82 -78.99 -62.87 -78.91 -77.92" fill="url(#uuunion-grad)"></path><path d="M-78.91 -77.92Q-78.99 -62.87 -79.14 -47.82 -79.35 -32.77 -79.61 -17.71 -79.9 -2.66 -80.19 12.38 -80.47 27.44 -80.72 42.49 -80.91 57.54 -81.04 72.59 -81.09 87.65 -81.07 102.7 -80.97 117.75 -80.8 132.81 -80.57 147.86 -80.3 162.91 -80.01 177.96 -79.72 193.02 -79.45 208.07 -79.22 223.12 -79.04 238.18 -78.93 253.23 -78.9 268.28 -78.94 283.34 -79.06 298.39 -79.25 313.44 -79.49 328.49 -79.76 343.55 -80.06 358.6 -80.35 373.65 -80.61 388.71 -80.83 403.76 -70.63 406.29 -60.43 408.64 -50.23 410.75 -40.03 412.57 -29.83 414.04 -19.64 415.11 -0.52 415.93 2.78 415.99 15.39 409.19 27.94 401.74 40.41 393.7 52.81 385.14 65.13 376.17 77.37 366.92 89.53 357.52 101.61 348.1 113.63 338.8 125.58 329.74 137.47 321.06 149.31 312.84 161.12 305.17 172.91 298.1 184.68 291.65 196.46 285.83 208.26 280.62 220.09 275.95 231.97 271.75 243.91 267.94 255.93 264.4 268.05 261 280.27 257.63 292.6 254.17 305.06 250.48 317.65 246.48 330.39 242.06 343.26 237.15 356.28 231.7 369.44 225.68 382.75 219.1 396.18 211.97 409.75 204.34 423.43 196.28 437.21 187.86 451.08 179.2 465.01 170.39 479.01 161.55 493.03 152.79 507.06 144.21 521.07 135.92 535.05 127.99 548.97 120.5 562.81 113.48 576.54 106.97 590.14 100.97 603.59 95.46 616.87 90.4 629.96 85.73 642.85 81.37 655.52 77.25 667.96 73.27 680.16 69.32 692.13 65.3 703.85 61.13 715.34 56.71 726.59 51.98 737.62 46.86 748.43 41.33 759.05 35.35 769.49 28.92 779.78 22.06 789.94 14.8 800 7.2 793.23 -10.48 787.12 -28.17 782.26 -45.86 779.12 -63.55 778 -81.24 779.01 -98.93 782.05 -116.62 786.83 -134.31 772.16 -133.13 757.48 -132.38 742.81 -132.1 728.14 -132.3 713.47 -132.97 698.8 -134.07 684.12 -135.54 669.45 -137.28 654.78 -139.19 640.11 -141.15 625.44 -143.04 610.76 -144.73 596.09 -146.14 581.42 -147.17 566.75 -147.76 552.08 -147.88 537.4 -147.51 522.73 -146.67 508.06 -145.43 493.39 -143.86 478.72 -142.04 464.04 -140.1 449.37 -138.16 434.7 -136.32 420.03 -134.72 405.35 -133.43 390.68 -132.55 376.01 -132.13 361.34 -132.19 346.67 -132.73 331.99 -133.71 317.32 -135.08 302.65 -136.76 287.98 -138.63 273.31 -140.58 258.63 -142.5 243.96 -144.27 229.29 -145.77 214.62 -146.92 199.95 -147.64 185.27 -147.89 170.6 -147.66 155.93 -146.96 141.26 -145.83 126.59 -144.34 111.91 -142.59 97.24 -140.67 82.57 -138.72 67.9 -136.84 53.22 -135.16 38.55 -133.77 23.88 -132.76 9.21 -132.2 -5.45 -132.12 -20.13 -132.52 -34.8 -133.38 -49.47 -134.65 -64.14 -136.24 -78.81 -138.07 -93.49 -140.01 -108.16 -141.95 -122.83 -143.78 -132.19 -131.8 -115.08 -113.09 -105.98 -104.38 -96.92 -95.6 -87.9 -86.77 -78.91 -77.92" fill="url(#uuunion-grad2)" filter="url(#uuunion-blur)"></path><path d="M816.66 411.52Q826.86 409.51 837.06 407.25 847.26 404.78 857.46 402.18 867.66 399.52 877.86 396.88 888.05 394.32 898.25 391.91 901.77 406.8 903.73 421.69 903.99 436.57 902.55 451.46 899.49 466.35 895.05 481.23 889.53 496.12 883.34 511 876.9 525.89 870.68 540.78 865.13 555.66 860.64 570.55 857.53 585.44 856.02 600.32 856.22 615.21 858.12 630.1 861.58 644.98 866.35 659.87 872.09 674.75 878.4 689.64 884.82 704.53 890.9 719.41 896.2 734.3 900.34 749.19 903.03 764.07 904.08 778.96 903.42 793.84 901.08 808.73 897.24 823.62 892.17 838.5 886.23 853.39 879.84 868.28 866.08 873.14 852.32 878.36 838.55 883.66 824.79 888.78 811.03 893.43 797.26 897.38 783.5 900.42 769.74 902.39 755.97 903.18 742.21 902.76 728.45 901.15 714.68 898.42 700.92 894.74 687.16 890.28 673.39 885.28 659.63 880 645.87 874.72 632.1 869.72 618.34 865.26 604.58 861.57 590.81 858.85 577.05 857.23 563.29 856.81 549.52 857.6 535.76 859.57 522 862.6 508.23 866.55 494.47 871.2 480.71 876.31 466.94 881.62 453.18 886.84 439.42 891.7 425.65 895.95 411.89 899.36 398.13 901.76 384.36 903.02 370.6 903.07 356.84 901.91 343.07 899.6 329.31 896.26 315.55 892.08 301.78 887.26 288.02 882.06 274.26 876.75 260.49 871.61 246.73 866.91 232.97 862.89 219.2 859.78 205.44 857.72 191.68 856.83 177.91 857.15 164.15 858.67 150.39 861.31 136.62 864.93 122.86 869.34 109.1 874.3 95.33 879.57 81.57 884.85 67.81 889.88 54.04 894.4 40.28 898.16 26.52 900.96 5.96 897.86 -0.66 882.89 -0.5 872.74 -0.36 862.59 -0.24 852.44 -0.14 842.29 0.19 827.07 0.98 822 13.82 815.18 26.65 807.44 39.45 798.86 52.21 789.54 64.92 779.61 77.57 769.25 90.15 758.64 102.66 747.96 115.09 737.41 127.42 727.17 139.67 717.4 151.83 708.27 163.89 699.88 175.87 692.33 187.76 685.65 199.58 679.87 211.33 674.95 223.02 670.83 234.67 667.4 246.28 664.55 257.88 662.11 269.48 659.93 281.09 657.82 292.73 655.6 304.42 653.1 316.17 650.16 328.01 646.65 339.95 642.44 351.99 637.47 364.17 631.67 376.48 625.05 388.95 617.61 401.57 609.44 414.35 600.6 427.31 591.22 440.43 581.45 453.72 571.43 467.17 561.34 480.78 551.33 494.54 541.58 508.43 532.22 522.44 523.39 536.56 515.2 550.76 507.71 565.03 500.99 579.33 495.03 593.66 489.82 607.97 485.31 622.25 481.41 636.46 478.02 650.59 475.01 664.61 472.23 678.49 469.53 692.2 466.76 705.73 463.76 719.05 460.41 732.15 456.58 745.01 452.16 757.62 447.1 769.96 441.33 782.04 434.86 793.85 427.7 811.03 415.7 816.66 411.52" fill="url(#uuunion-grad3)" filter="url(#uuunion-blur2)"></path></svg>